<svg id="eCn9O6w3p7A1" xmlns="http://www.w3.org/2000/svg" xmlns:xlink="http://www.w3.org/1999/xlink" viewBox="0 0 400 300" shape-rendering="geometricPrecision" text-rendering="geometricPrecision">
	<g transform="matrix(1.22667 0 0 1.22667 3.447351-34.0005)">
		<rect width="4" height="300" rx="0" ry="0" transform="matrix(14.30667 0 0 1 296.434266 0)" stroke="#000"/>
		<rect width="4" height="300" rx="0" ry="0" transform="translate(279.778509 0)" stroke="#000"/>
		<rect width="4" height="300" rx="0" ry="0" transform="translate(269.778509 0)" stroke="#000"/>
		<rect width="4" height="300" rx="0" ry="0" transform="translate(265.778509 0)" stroke="#000"/>
		<rect width="4" height="300" rx="0" ry="0" transform="translate(255.778509 0)" stroke="#000"/>
		<rect width="4" height="300" rx="0" ry="0" transform="translate(245.778509 0)" stroke="#000"/>
		<rect width="4" height="300" rx="0" ry="0" transform="translate(235.778509 0)" stroke="#000"/>
		<rect width="4" height="300" rx="0" ry="0" transform="translate(225.778509 0)" stroke="#000"/>
		<rect width="4" height="300" rx="0" ry="0" transform="translate(215.778509 0)" stroke="#000"/>
		<rect width="4" height="300" rx="0" ry="0" transform="translate(211.778509 0)" stroke="#000"/>
		<rect width="4" height="300" rx="0" ry="0" transform="translate(201.778509 0)" stroke="#000"/>
		<rect width="4" height="300" rx="0" ry="0" transform="translate(191.778509 0)" stroke="#000"/>
		<rect width="4" height="300" rx="0" ry="0" transform="translate(187.778509 0)" stroke="#000"/>
		<rect width="4" height="300" rx="0" ry="0" transform="translate(177.778509 0)" stroke="#000"/>
		<rect width="4" height="300" rx="0" ry="0" transform="translate(173.778509 0)" stroke="#000"/>
		<rect width="4" height="300" rx="0" ry="0" transform="translate(163.778509 0)" stroke="#000"/>
		<rect width="4" height="300" rx="0" ry="0" transform="translate(153.778509 0)" stroke="#000"/>
		<rect width="4" height="300" rx="0" ry="0" transform="translate(149.778509 0)" stroke="#000"/>
		<rect width="4" height="300" rx="0" ry="0" transform="translate(139.778509 0)" stroke="#000"/>
		<rect width="4" height="300" rx="0" ry="0" transform="translate(129.778509 0)" stroke="#000"/>
		<rect width="4" height="300" rx="0" ry="0" transform="translate(119.778509 0)" stroke="#000"/>
		<rect width="4" height="300" rx="0" ry="0" transform="translate(115.778509 0)" stroke="#000"/>
		<rect width="4" height="300" rx="0" ry="0" transform="translate(105.778509 0)" stroke="#000"/>
		<rect width="4" height="300" rx="0" ry="0" transform="translate(95.778509 0)" stroke="#000"/>
		<rect width="4" height="300" rx="0" ry="0" transform="translate(85.778509 0)" stroke="#000"/>
		<rect width="4" height="300" rx="0" ry="0" transform="translate(75.778509 0)" stroke="#000"/>
		<rect width="4" height="300" rx="0" ry="0" transform="translate(71.778509 0)" stroke="#000"/>
		<rect width="4" height="300" rx="0" ry="0" transform="translate(61.778509 0)" stroke="#000"/>
		<rect width="4" height="300" rx="0" ry="0" transform="translate(51.778509 0)" stroke="#000"/>
		<rect width="4" height="300" rx="0" ry="0" transform="translate(47.778509 0)" stroke="#000"/>
		<rect width="4" height="300" rx="0" ry="0" transform="translate(37.778509 0)" stroke="#000"/>
		<rect width="4" height="300" rx="0" ry="0" transform="matrix(14.456084 0 0 1-32.893843 0)" stroke="#000"/>
	</g>
</svg>
