<svg id="eomM0GsWaK51" xmlns="http://www.w3.org/2000/svg" xmlns:xlink="http://www.w3.org/1999/xlink" viewBox="0 0 600 600" shape-rendering="geometricPrecision" text-rendering="geometricPrecision"><g><ellipse rx="75" ry="75" transform="translate(337.5 300)" fill="#fff" stroke="#000"/><ellipse rx="75" ry="75" transform="matrix(.915785 0 0 0.915785 337.5 300)" fill="none" stroke="#000"/><ellipse rx="75" ry="75" transform="matrix(.837049 0 0 0.837049 337.5 300)" fill="none" stroke="#000"/><g transform="translate(0 0.000001)"><ellipse rx="75" ry="75" transform="matrix(.539443 0 0 0.539443 337.5 300)" fill="none" stroke="#000"/><g transform="translate(.000001 0)"><line x1="-6.875368" y1="7.333726" x2="6.875367" y2="-7.333726" transform="translate(318.568372 281.578689)" fill="none" stroke="#000"/><line x1="7.562316" y1="12.648406" x2="-3.437684" y2="-7.351594" transform="translate(317.461423 262.093274)" fill="none" stroke="#000"/><line x1="7.562316" y1="12.648406" x2="-3.437684" y2="-7.351594" transform="matrix(-.79135 0.611363-.611363-.79135 305.078098 285.035955)" fill="none" stroke="#000"/></g><g transform="matrix(-.018567 0.999828-.999828-.018567 644.694293-31.082743)"><line x1="-6.875368" y1="7.333726" x2="6.875367" y2="-7.333726" transform="translate(318.568372 281.578689)" fill="none" stroke="#000"/><line x1="7.562316" y1="12.648406" x2="-3.437684" y2="-7.351594" transform="translate(317.461423 262.093274)" fill="none" stroke="#000"/><line x1="7.562316" y1="12.648406" x2="-3.437684" y2="-7.351594" transform="matrix(-.79135 0.611363-.611363-.79135 305.078098 285.035955)" fill="none" stroke="#000"/></g><g transform="matrix(-.667768-.744369 0.744369-.667768 340.862635 749.767164)"><line x1="-6.875368" y1="7.333726" x2="6.875367" y2="-7.333726" transform="translate(318.568372 281.578689)" fill="none" stroke="#000"/><line x1="7.562316" y1="12.648406" x2="-3.437684" y2="-7.351594" transform="translate(317.461423 262.093274)" fill="none" stroke="#000"/><line x1="7.562316" y1="12.648406" x2="-3.437684" y2="-7.351594" transform="matrix(-.79135 0.611363-.611363-.79135 305.078098 285.035955)" fill="none" stroke="#000"/></g></g></g></svg>
