<svg width="120" height="32" xmlns="http://www.w3.org/2000/svg" viewBox="0 0 237.56 63.53">
	<path d="M108.64 5.42c.72-.64 1.35-1.65 2.18-1.87 4.73-1.24 9.52-2.27 14.28-3.41 2.89-.69 2.21 1.13 1.87 2.65-2.7 11.89-5.42 23.77-7.69 35.92.63-.84 1.28-1.66 1.9-2.51 3.91-5.37 8.56-9.95 14.46-13.06 2.67-1.41 5.72-3.5 8.57-1.17 2.67 2.18 1.06 5.45.42 8.15-1.56 6.63-3.47 13.19-5.03 19.82-.43 1.85-.14 3.87-.17 5.81 1.69-.74 3.38-1.47 5.06-2.23.43-.19.81-.48 2.15-1.28-.21 1.56-.02 2.86-.49 3.17-3.82 2.57-7.61 5.26-11.71 7.29-3.6 1.78-6.09.02-5.59-3.95.6-4.74 1.93-9.39 3.01-14.06.95-4.12 2.06-8.2 2.93-12.34.19-.88-.05-2.19-.62-2.78-.39-.4-1.97-.2-2.58.29-2.46 1.97-5.05 3.9-7.04 6.31-5.97 7.19-8.33 15.91-9.88 25.14-2.95.56-5.99 1.13-9.64 1.82.94-3.81 1.89-6.99 2.5-10.23 2.71-14.15 5.37-28.32 7.93-42.5.66-3.66.32-3.84-3.52-3.96-.86-.03-1.71-.1-2.57-.15-.24-.27-.48-.57-.73-.87zM195.39 53.1c-.2.87-.11 2.17-.64 2.53-3.66 2.47-7.28 5.09-11.23 6.99-4.4 2.11-6.81.47-6.09-4.29.95-6.24 2.75-12.35 4.19-18.52.48-2.06 1.13-4.09 1.37-6.18.14-1.21-.37-2.49-.58-3.75-1.23.39-2.7.48-3.64 1.23-1.79 1.43-3.4 3.14-4.86 4.92-6 7.3-8.46 16.05-10.04 25.35-2.42.44-4.85.88-7.29 1.33-2.51.46-2.89 0-2.2-2.5 1.61-5.83 3.3-11.64 4.72-17.52.83-3.45 1.21-7.01 1.73-10.53.1-.71-.09-1.46-.21-2.84-2.53 1.43-4.63 2.62-7.58 4.3.23-1.49.04-2.8.55-3.19 3.82-2.92 7.68-5.8 11.74-8.36 1.17-.74 3.54-1.05 4.44-.35.91.7 1.11 2.96.87 4.41-.75 4.53-1.85 9-2.87 13.79 1.91-2.52 3.42-5.09 5.48-7.12 3.41-3.36 7.08-6.48 10.82-9.48 1.3-1.04 3.08-1.6 4.73-2.04 3.07-.81 5.13.68 4.82 3.83-.37 3.8-1.27 7.56-2.1 11.3-1.25 5.62-2.68 11.2-3.94 16.82-.17.75.15 1.62.24 2.43.89-.15 1.88-.11 2.66-.49 1.37-.66 2.61-1.58 3.91-2.39.32.11.66.22 1 .32zM19.38 22.64h11.13c.33 4.3-.14 4.83-4 4.77-2.6-.04-5.19-.01-8.11-.01-1.42 6.66-2.85 13.29-4.25 19.92-.36 1.69-.78 3.39-.9 5.1-.08 1.15-.03 3.04.58 3.34.95.47 2.61.21 3.66-.33 2.3-1.18 4.4-2.74 6.66-4.19 1.34 1.05 1.77 2.03.12 3.14-3.52 2.36-6.99 4.79-10.56 7.07-1.2.76-2.58 1.34-3.96 1.68-4.08 1-6.91-1.05-6.53-5.23.44-4.76 1.56-9.46 2.5-14.17 1.06-5.36 2.24-10.69 3.43-16.36H.51c-.17-.26-.34-.53-.51-.8.74-.69 1.44-1.93 2.22-1.98 7.13-.53 9.53-4.75 9.19-11.29-.11-2.09.72-3.31 2.95-3.75 1.96-.38 3.82-1.27 5.76-1.82.74-.21 1.58-.11 2.37-.14-.01.82.12 1.68-.06 2.46-.58 2.53-1.3 5.02-1.93 7.54-.38 1.56-.7 3.16-1.12 5.05zM230.57 51.7c0 1.32.34 2.66-.05 2.93-5.92 4.09-11.71 8.64-19.42 8.68-6.98.03-11.19-4.58-10.38-11.54.45-3.9 1.22-7.78 2.14-11.6 2.6-10.9 10.62-15.95 20.64-18.66 3.29-.89 6.45-.22 8.73 2.37 2.37 2.69 1.78 5.93.72 9.03-1.19 3.48-3.63 6.02-6.92 7.38-4.24 1.75-8.64 3.1-13.03 4.45-1.34.41-2.04.8-2.26 2.37-1.29 9.18 2.9 12.61 11.55 9.12 2.63-1.07 5.03-2.73 8.28-4.53zm-19.52-9.72c.32.24.63.49.95.73 2.13-.82 4.31-1.53 6.38-2.47 3.35-1.51 5.47-4.22 6.58-7.64.74-2.29 1.38-4.78-1.17-6.51-1.91-1.3-4.88-.51-6.95 1.75-.45.49-.97 1.01-1.2 1.61-1.56 4.17-3.06 8.36-4.59 12.53zM61.77 52.41c-.2.87-.12 2.24-.64 2.53-5.11 2.8-10.09 6.19-15.57 7.91-8.83 2.77-15.05-3.28-13.71-12.45.27-1.81.49-3.62.82-5.42 2.47-13.29 10-21.35 22.02-23.57 7.45-1.38 11.94 3.94 9.4 11.15-1.22 3.45-3.46 6.15-6.76 7.53-4.32 1.81-8.8 3.25-13.28 4.61-1.53.46-2.13.99-2.33 2.63-1.12 9.01 3.03 12.34 11.51 8.91 2.64-1.07 5.05-2.72 7.56-4.1.32.09.65.18.98.27zM42.05 41.99l.96.72c2.13-.82 4.3-1.53 6.38-2.47 3.34-1.51 5.46-4.23 6.58-7.64.75-2.29 1.35-4.78-1.18-6.52-1.83-1.25-4.74-.53-6.74 1.57-.53.55-1.14 1.13-1.4 1.82-1.59 4.16-3.08 8.35-4.6 12.52zM103.86 23.7c-.82 3.74-1.53 7.31-2.44 10.82-.15.59-1.15.95-1.76 1.42-.38-.61-1.09-1.21-1.1-1.82-.09-4.36-.71-5.39-4.3-6.53-3.93-1.25-8.15-.37-9.79 2.77-3.65 6.95-5.26 14.48-4.19 22.31.57 4.15 4.39 6.02 8.98 4.49 3.7-1.23 7.16-3.15 11.37-5.06-.1 1.02.14 2.39-.34 2.73-5.48 3.9-10.93 7.96-17.98 8.57-7.16.62-11.72-3.09-12.17-10.29-.43-6.95.99-13.64 4.53-19.67 1.12-1.91 3.03-3.46 4.84-4.84 2.21-1.69 4.68-3.03 7.03-4.53 5.7-3.62 11.44-2.94 17.32-.37zM209.85 12.66c.07-5.34.2-5.47 4.79-5.47h22.92c-.51 2.01-.93 3.72-1.38 5.48-8.85-.01-17.5-.01-26.33-.01z">
	</path>
</svg>