<?xml version="1.0" encoding="utf-8"?>
<!-- Generator: Adobe Illustrator 27.4.1, SVG Export Plug-In . SVG Version: 6.00 Build 0)  -->
<svg version="1.1" id="Layer_1" xmlns="http://www.w3.org/2000/svg" xmlns:xlink="http://www.w3.org/1999/xlink" x="0px" y="0px"
	 viewBox="0 0 100 100" enable-background="new 0 0 100 100" xml:space="preserve">
<path fill="#3544B1" d="M1,49.9C1,22.9,23,1,50.1,1C77.1,1,99,23,99,50.1C99,77.1,77,99,50,99C22.9,99,1,77,1,49.9L1,49.9z M49,66.7
	c-3.8,0.1-7.6-0.2-11.3-1c-2.7-0.6-5.1-2.4-6.2-5c-1.1-2.6-1.6-6.5-1.6-11.8c0-2.8,0.2-5.6,0.5-8.3c0.3-2.7,0.6-4.9,1-6.7l0.3-1.7
	c0-0.1,0-0.1,0-0.2c0-0.5-0.3-0.9-0.8-1l-6.3-1h-0.1c-0.5,0-0.9,0.3-1,0.8c-0.1,0.4-0.2,0.7-0.4,1.7c-0.4,1.9-0.7,3.7-1.1,6.3
	c-0.4,2.9-0.6,5.8-0.7,8.7c-0.1,2-0.1,4,0,6.1c0.2,5.4,1.1,9.6,2.8,12.9c1.7,3.2,4.6,5.5,8.6,6.9c4,1.4,9.7,2.1,16.9,2.1h0.9
	c7.2,0,12.9-0.7,16.9-2.1c4-1.4,6.9-3.7,8.6-6.9c1.7-3.2,2.6-7.5,2.8-12.9c0.1-2,0.1-4,0-6.1c-0.1-2.9-0.3-5.8-0.7-8.7
	c-0.4-2.6-0.7-4.4-1.1-6.3c-0.2-1-0.3-1.3-0.4-1.7c-0.1-0.4-0.5-0.8-1-0.8h-0.2l-6.3,1c-0.5,0.1-0.8,0.5-0.8,1c0,0.1,0,0.1,0,0.2
	l0.3,1.7c0.3,1.8,0.6,4,1,6.7c0.3,2.8,0.5,5.5,0.5,8.3c0.1,5.3-0.5,9.3-1.6,11.8c-1.1,2.5-3.4,4.4-6.1,5c-3.7,0.8-7.5,1.1-11.3,1
	L49,66.7z"/>
</svg>
